<svg viewBox="0 0 1600 900" xmlns="http://www.w3.org/2000/svg" role="img" aria-label="Four robed figures sit together in the dusk; one gestures as he speaks.">
  <defs>
    <linearGradient id="sky4" x1="0" y1="0" x2="0" y2="1">
      <stop offset="0%" stop-color="#2c2740"/>
      <stop offset="55%" stop-color="#5b3f4c"/>
      <stop offset="100%" stop-color="#9c6a4c"/>
    </linearGradient>
    <linearGradient id="ground4" x1="0" y1="0" x2="0" y2="1">
      <stop offset="0%" stop-color="#382c24"/>
      <stop offset="100%" stop-color="#14100c"/>
    </linearGradient>
  </defs>

  <rect x="0" y="0" width="1600" height="900" fill="url(#sky4)"/>

  <path d="M0,590 L220,570 L440,600 L680,565 L920,595 L1160,568 L1380,590 L1600,572 L1600,650 L0,650 Z" fill="#2b232c" opacity="0.5"/>

  <path d="M0,640 C300,600 600,660 900,625 C1150,600 1400,645 1600,620 L1600,900 L0,900 Z" fill="url(#ground4)"/>

  <ellipse cx="800" cy="760" rx="280" ry="55" fill="#231b16"/>

  <g fill="#0f0c0a">
    <g transform="translate(650,700) scale(0.72)">
      <path d="M-55,120 C-64,50 -40,-20 0,-50 C40,-20 64,50 55,120 Z"/>
      <circle cx="0" cy="-72" r="25"/>
    </g>
    <g transform="translate(950,700) scale(0.72)">
      <path d="M-55,120 C-64,50 -40,-20 0,-50 C40,-20 64,50 55,120 Z"/>
      <circle cx="0" cy="-72" r="25"/>
    </g>
    <g transform="translate(1060,712) scale(0.66)">
      <path d="M-55,120 C-64,50 -40,-20 0,-50 C40,-20 64,50 55,120 Z"/>
      <circle cx="0" cy="-72" r="25"/>
    </g>
  </g>

  <g transform="translate(800,690)" fill="#0f0c0a">
    <path d="M-58,130 C-68,50 -42,-30 0,-60 C42,-30 68,50 58,130 Z"/>
    <circle cx="0" cy="-84" r="27"/>
    <path d="M40,-30 C80,-55 108,-70 128,-100" fill="none" stroke="#0f0c0a" stroke-width="16" stroke-linecap="round"/>
  </g>
</svg>
