<svg viewBox="0 0 1600 900" xmlns="http://www.w3.org/2000/svg" role="img" aria-label="A lone robed figure sits on a mound of ashes under a muted, overcast sky.">
  <defs>
    <linearGradient id="sky2" x1="0" y1="0" x2="0" y2="1">
      <stop offset="0%" stop-color="#463f47"/>
      <stop offset="55%" stop-color="#6d6058"/>
      <stop offset="100%" stop-color="#8f7d68"/>
    </linearGradient>
    <linearGradient id="ground2" x1="0" y1="0" x2="0" y2="1">
      <stop offset="0%" stop-color="#41372e"/>
      <stop offset="100%" stop-color="#171310"/>
    </linearGradient>
    <radialGradient id="ash2" cx="50%" cy="50%" r="50%">
      <stop offset="0%" stop-color="#5a4f47"/>
      <stop offset="100%" stop-color="#2a231e"/>
    </radialGradient>
  </defs>

  <rect x="0" y="0" width="1600" height="900" fill="url(#sky2)"/>

  <path d="M0,600 L200,580 L420,610 L650,575 L900,605 L1150,580 L1350,600 L1600,585 L1600,660 L0,660 Z" fill="#4a4038" opacity="0.5"/>

  <path d="M0,650 C300,610 600,670 900,635 C1150,610 1400,655 1600,630 L1600,900 L0,900 Z" fill="url(#ground2)"/>

  <ellipse cx="820" cy="740" rx="220" ry="55" fill="url(#ash2)"/>

  <g transform="translate(800,680)">
    <path d="M-60,120 C-70,40 -40,-40 0,-70 C40,-40 70,40 60,120 Z" fill="#0f0c0a"/>
    <circle cx="0" cy="-95" r="26" fill="#0f0c0a"/>
    <path d="M-58,110 C-30,90 30,90 58,110" fill="none" stroke="#1c1712" stroke-width="6" stroke-linecap="round"/>
  </g>

  <g fill="#100c09" opacity="0.85">
    <path d="M960,780 l30,-10 l-4,14 l24,-4 l-40,18 z"/>
    <path d="M1010,800 l20,-6 l-2,10 l16,-2 l-26,12 z"/>
  </g>

  <g fill="#2c261f" opacity="0.5">
    <circle cx="700" cy="660" r="4"/>
    <circle cx="740" cy="650" r="3"/>
    <circle cx="900" cy="655" r="4"/>
    <circle cx="940" cy="668" r="3"/>
  </g>
</svg>
